<svg width="164" height="48" viewBox="0 0 164 48" fill="none" xmlns="http://www.w3.org/2000/svg">
<path d="M89.0425 30.7282C90.0311 30.7283 90.8974 30.9005 91.6411 31.2452C92.3895 31.5853 92.9771 32.0596 93.4035 32.6674C93.8297 33.2706 94.0494 33.9646 94.063 34.7492H91.6346C91.5711 34.155 91.3032 33.6923 90.8315 33.3612C90.3644 33.0301 89.7565 32.8644 89.0082 32.8644C88.4822 32.8644 88.0309 32.944 87.6545 33.1027C87.2781 33.2614 86.99 33.477 86.7904 33.7491C86.5909 34.0212 86.4891 34.332 86.4846 34.6812C86.4846 34.9713 86.5502 35.2228 86.6816 35.4359C86.8177 35.6491 87.0015 35.8308 87.2328 35.9805C87.4641 36.1256 87.7204 36.248 88.0016 36.3478C88.2828 36.4475 88.5663 36.5317 88.852 36.5997L90.1579 36.9262C90.684 37.0486 91.1901 37.2138 91.6754 37.4224C92.1652 37.6311 92.6028 37.8944 92.9883 38.2119C93.3783 38.5294 93.6866 38.9126 93.9133 39.3616C94.1401 39.8106 94.2539 40.3368 94.2539 40.94C94.2539 41.7564 94.0449 42.4751 93.6277 43.0964C93.2104 43.7132 92.6072 44.1966 91.818 44.5458C91.0334 44.8905 90.0831 45.0628 88.9674 45.0628C87.8835 45.0627 86.9423 44.8951 86.144 44.5594C85.3504 44.2238 84.7289 43.7338 84.2799 43.0898C83.8355 42.4458 83.5953 41.6611 83.559 40.736H86.0422C86.0786 41.2212 86.2282 41.6247 86.4912 41.9467C86.7542 42.2687 87.0966 42.5094 87.5184 42.6681C87.9448 42.8269 88.4211 42.9059 88.9472 42.9059C89.496 42.9059 89.9769 42.8244 90.3896 42.6611C90.8068 42.4933 91.1333 42.2621 91.3691 41.9673C91.6049 41.668 91.7253 41.3185 91.7298 40.9194C91.7252 40.5566 91.6185 40.2574 91.4099 40.0216C91.2013 39.7812 90.9087 39.5818 90.5322 39.423C90.1603 39.2598 89.7248 39.1143 89.2259 38.9873L87.6409 38.5792C86.4935 38.2844 85.5864 37.8377 84.9198 37.239C84.2576 36.6358 83.9262 35.8352 83.9262 34.8374C83.9263 34.0165 84.1488 33.2978 84.5933 32.681C85.0423 32.0642 85.6521 31.5853 86.4231 31.2452C87.1942 30.9005 88.0673 30.7282 89.0425 30.7282ZM100.379 34.2651C101.399 34.2651 102.283 34.4897 103.032 34.9387C103.78 35.3877 104.358 36.0182 104.766 36.83C105.179 37.6418 105.386 38.5875 105.386 39.667C105.386 40.7464 105.179 41.6896 104.766 42.4969C104.358 43.3042 103.78 43.9326 103.032 44.3817C102.283 44.8306 101.399 45.0552 100.379 45.0553C99.3581 45.0553 98.4734 44.8307 97.7251 44.3817C96.9767 43.9326 96.3961 43.3042 95.9834 42.4969C95.5753 41.6896 95.3712 40.7463 95.3712 39.667C95.3712 38.5876 95.5752 37.6418 95.9834 36.83C96.3961 36.0182 96.9768 35.3877 97.7251 34.9387C98.4734 34.4897 99.3581 34.2651 100.379 34.2651ZM138.085 34.2651C139.105 34.2651 139.99 34.4897 140.738 34.9387C141.486 35.3877 142.064 36.0182 142.473 36.83C142.885 37.6418 143.092 38.5875 143.092 39.667C143.092 40.7464 142.885 41.6896 142.473 42.4969C142.064 43.3042 141.486 43.9326 140.738 44.3817C139.99 44.8306 139.105 45.0552 138.085 45.0553C137.064 45.0553 136.18 44.8307 135.431 44.3817C134.683 43.9326 134.102 43.3042 133.69 42.4969C133.281 41.6896 133.077 40.7463 133.077 39.667C133.077 38.5876 133.281 37.6418 133.69 36.83C134.102 36.0182 134.683 35.3877 135.431 34.9387C136.18 34.4897 137.064 34.2651 138.085 34.2651ZM125.559 34.4016H127.621V36.3065H125.559V41.7084C125.559 42.0394 125.609 42.2933 125.709 42.4702C125.813 42.6425 125.949 42.7608 126.117 42.8243C126.285 42.8878 126.471 42.9195 126.675 42.9195C126.829 42.9195 126.97 42.908 127.097 42.8853C127.228 42.8626 127.328 42.8425 127.396 42.8243L127.811 44.7494C127.68 44.7948 127.491 44.8446 127.246 44.899C127.006 44.9535 126.711 44.9852 126.362 44.9943C125.745 45.0124 125.189 44.9197 124.695 44.7156C124.201 44.507 123.808 44.1847 123.518 43.7493C123.232 43.3139 123.092 42.7696 123.096 42.1165V36.3065H121.613V34.4016H123.096V31.8981H125.559V34.4016ZM113.784 40.6741C113.784 41.3363 113.966 41.8625 114.329 42.2525C114.692 42.6425 115.168 42.8374 115.757 42.8375C116.12 42.8375 116.472 42.7493 116.812 42.5724C117.152 42.3955 117.431 42.1322 117.649 41.783C117.871 41.4292 117.982 40.9871 117.982 40.4564V34.4016H120.445V44.8512H118.057V42.9941H117.948C117.712 43.5792 117.324 44.0576 116.785 44.4295C116.249 44.8014 115.59 44.9877 114.805 44.9877C114.12 44.9877 113.514 44.8356 112.988 44.5318C112.467 44.2234 112.059 43.7766 111.764 43.1916C111.469 42.602 111.322 41.8895 111.322 41.055V34.4016H113.784V40.6741ZM159.574 34.2538C160.777 34.2538 161.725 34.5111 162.415 35.0255C163.11 35.5398 163.54 36.2353 163.705 37.1119L161.499 37.3535C161.437 37.1299 161.328 36.9198 161.172 36.723C161.02 36.5262 160.815 36.3672 160.557 36.2465C160.298 36.1257 159.982 36.0654 159.607 36.0654C159.104 36.0654 158.68 36.175 158.337 36.3942C157.999 36.6133 157.831 36.8973 157.836 37.2461C157.831 37.5458 157.941 37.79 158.164 37.9778C158.391 38.1656 158.765 38.3201 159.287 38.4408L161.038 38.8165C162.01 39.0268 162.731 39.3599 163.204 39.8161C163.681 40.2724 163.921 40.8695 163.926 41.6075C163.921 42.2561 163.732 42.8288 163.358 43.3253C162.988 43.8173 162.473 44.2019 161.814 44.4792C161.154 44.7565 160.396 44.8953 159.541 44.8953C158.284 44.8953 157.272 44.6312 156.506 44.1035C155.739 43.5712 155.282 42.8307 155.135 41.8824L157.495 41.6544C157.602 42.1196 157.829 42.4709 158.177 42.708C158.524 42.945 158.977 43.0635 159.534 43.0636C160.109 43.0636 160.57 42.945 160.918 42.708C161.27 42.4709 161.446 42.1778 161.446 41.8289C161.446 41.5337 161.332 41.29 161.105 41.0977C160.882 40.9053 160.534 40.7577 160.062 40.6548L158.31 40.2857C157.326 40.0799 156.597 39.7333 156.125 39.2457C155.652 38.7538 155.418 38.132 155.423 37.3807C155.418 36.7456 155.59 36.1952 155.937 35.73C156.289 35.2604 156.778 34.8981 157.401 34.6432C158.03 34.3837 158.754 34.2538 159.574 34.2538ZM73.9415 44.8517H71.2476L70.0932 41.4162H64.8546L63.7025 44.8517H61.0086L65.9137 30.9187H69.0298L73.9415 44.8517ZM77.7269 44.8517H75.2028V30.9187H77.7269V44.8517ZM109.364 44.8517H106.901V30.9187H109.364V44.8517ZM131.569 44.8517H129.106V34.4021H131.569V44.8517ZM150.2 34.2651C150.921 34.2651 151.549 34.4193 152.084 34.7276C152.624 35.036 153.041 35.4827 153.336 36.0677C153.635 36.6528 153.783 37.3628 153.778 38.1973V44.8512H151.315V38.5782C151.315 37.8798 151.134 37.3334 150.771 36.9388C150.413 36.5442 149.916 36.3469 149.281 36.3468C148.85 36.3468 148.467 36.4421 148.132 36.6325C147.8 36.8185 147.54 37.0884 147.349 37.4421C147.163 37.7959 147.07 38.2245 147.07 38.7279V44.8512H144.607V34.4011H146.961V36.1766H147.084C147.324 35.5916 147.707 35.1267 148.233 34.782C148.764 34.4373 149.42 34.2651 150.2 34.2651ZM100.392 36.2178C99.8253 36.2178 99.3535 36.3719 98.977 36.6804C98.6051 36.9888 98.3261 37.4037 98.1402 37.9253C97.9588 38.4423 97.8681 39.0205 97.8681 39.6599C97.8681 40.2949 97.9588 40.871 98.1402 41.388C98.3261 41.9051 98.6051 42.318 98.977 42.6264C99.3535 42.9302 99.8253 43.0823 100.392 43.0823C100.945 43.0823 101.408 42.9301 101.78 42.6264C102.152 42.318 102.429 41.9051 102.61 41.388C102.796 40.871 102.889 40.2949 102.889 39.6599C102.889 39.0205 102.796 38.4423 102.61 37.9253C102.429 37.4037 102.152 36.9888 101.78 36.6804C101.408 36.372 100.945 36.2179 100.392 36.2178ZM138.098 36.2178C137.532 36.2178 137.06 36.3719 136.683 36.6804C136.311 36.9888 136.032 37.4037 135.846 37.9253C135.665 38.4423 135.574 39.0205 135.574 39.6599C135.574 40.2949 135.665 40.871 135.846 41.388C136.032 41.9051 136.311 42.318 136.683 42.6264C137.06 42.9302 137.532 43.0823 138.098 43.0823C138.652 43.0823 139.114 42.9301 139.486 42.6264C139.858 42.318 140.135 41.9051 140.316 41.388C140.502 40.871 140.595 40.2949 140.595 39.6599C140.595 39.0205 140.502 38.4423 140.316 37.9253C140.135 37.4037 139.858 36.9888 139.486 36.6804C139.114 36.372 138.652 36.2179 138.098 36.2178ZM65.5347 39.3888H69.4121L67.5259 33.7758H67.4171L65.5347 39.3888ZM130.345 30.2451C130.739 30.2451 131.075 30.3766 131.351 30.6396C131.632 30.8981 131.773 31.2134 131.773 31.5852C131.773 31.9526 131.632 32.2678 131.351 32.5309C131.075 32.7894 130.739 32.9188 130.345 32.9188C129.955 32.9188 129.619 32.7894 129.338 32.5309C129.056 32.2679 128.916 31.9526 128.916 31.5852C128.916 31.2134 129.056 30.8981 129.338 30.6396C129.619 30.3765 129.955 30.2451 130.345 30.2451ZM155.216 7.90813C156.183 7.90813 156.977 8.0728 157.6 8.40207C158.23 8.72419 158.731 9.1143 159.104 9.57242C159.476 10.0234 159.759 10.4493 159.952 10.8502H160.167V8.12297H164V24.885C164 26.2951 163.664 27.4618 162.991 28.3852C162.318 29.3086 161.398 29.9994 160.231 30.4576C159.064 30.9157 157.74 31.1452 156.258 31.1453C154.862 31.1453 153.663 30.9552 152.661 30.5758C151.659 30.2035 150.853 29.7023 150.245 29.0724C149.636 28.4425 149.214 27.7447 148.978 26.9789L152.478 26.1304C152.636 26.4525 152.865 26.7709 153.166 27.0859C153.466 27.408 153.871 27.6729 154.379 27.8805C154.895 28.0952 155.542 28.2027 156.323 28.2027C157.425 28.2027 158.338 27.9342 159.061 27.3973C159.784 26.8676 160.145 25.9943 160.145 24.7775V21.6525H159.952C159.752 22.0534 159.458 22.4653 159.071 22.8876C158.692 23.3099 158.187 23.6642 157.558 23.9506C156.935 24.2369 156.151 24.3802 155.206 24.3802C153.939 24.3802 152.79 24.0831 151.759 23.489C150.735 22.8877 149.919 21.9927 149.311 20.8045C148.709 19.609 148.409 18.1127 148.409 16.3159C148.409 14.5048 148.709 12.9762 149.311 11.7306C149.919 10.478 150.739 9.52946 151.77 8.88522C152.8 8.23381 153.949 7.90815 155.216 7.90813ZM86.0695 7.90813C87.086 7.90813 88.0453 8.07279 88.9472 8.40207C89.8564 8.72421 90.6583 9.22539 91.3527 9.90546C92.0542 10.5855 92.6053 11.4519 93.0062 12.5041C93.407 13.5493 93.6075 14.7948 93.6075 16.2408V17.4327H82.1189C82.1303 18.3507 82.3053 19.1418 82.6443 19.8058C82.995 20.4858 83.4853 21.0084 84.1153 21.3734C84.7452 21.7314 85.4827 21.9105 86.3274 21.9105C86.8929 21.9105 87.4046 21.8316 87.8627 21.6741C88.3209 21.5095 88.7182 21.2695 89.0547 20.9546C89.3911 20.6396 89.6451 20.2495 89.8169 19.7842L93.4466 20.1923C93.2175 21.1516 92.7808 21.9893 92.1365 22.7052C91.4994 23.4138 90.6833 23.9649 89.6884 24.3587C88.6933 24.7452 87.5549 24.9384 86.2735 24.9384C84.6199 24.9384 83.1916 24.5951 81.989 23.9079C80.7935 23.2135 79.8737 22.2324 79.2294 20.9653C78.5852 19.6912 78.2631 18.1915 78.2631 16.4664C78.2631 14.7699 78.5852 13.2808 79.2294 11.9994C79.8808 10.7109 80.7902 9.7085 81.9571 8.99264C83.1239 8.26967 84.4947 7.90815 86.0695 7.90813ZM64.8911 10.8492H65.052C65.2525 10.4484 65.5355 10.0225 65.9006 9.57148C66.2657 9.11335 66.7596 8.72325 67.3824 8.40113C68.0052 8.07186 68.7999 7.90719 69.7662 7.90719C71.0404 7.90723 72.1894 8.23288 73.213 8.88428C74.2438 9.52856 75.0598 10.4842 75.6611 11.7513C76.2696 13.0112 76.5739 14.5574 76.5739 16.39C76.5739 18.201 76.2768 19.7401 75.6827 21.0071C75.0885 22.2742 74.2794 23.2407 73.2557 23.9065C72.232 24.5722 71.0722 24.9051 69.7766 24.9051C68.8317 24.9051 68.0478 24.7477 67.4251 24.4328C66.8023 24.1178 66.3011 23.7381 65.9217 23.2943C65.5495 22.8434 65.2596 22.4174 65.052 22.0166H64.8264V24.6152H61.0039V2.62398H64.8911V10.8492ZM115.897 7.90813C117.035 7.90813 118.026 8.1517 118.871 8.63848C119.723 9.12525 120.381 9.83018 120.847 10.7536C121.319 11.677 121.552 12.7974 121.545 14.1145V24.6162H117.658V14.7158C117.657 13.6135 117.371 12.7507 116.799 12.1279C116.233 11.5052 115.449 11.1941 114.447 11.194C113.767 11.194 113.162 11.3442 112.632 11.6448C112.11 11.9383 111.698 12.3642 111.397 12.9226C111.104 13.4809 110.957 14.1576 110.957 14.9523V24.6162H107.07V8.12297H110.786V10.9257H110.979C111.358 10.0023 111.963 9.26837 112.793 8.72432C113.631 8.18027 114.665 7.90813 115.897 7.90813ZM140.393 7.90813C141.531 7.90814 142.522 8.1517 143.367 8.63848C144.219 9.12525 144.878 9.83018 145.343 10.7536C145.815 11.677 146.048 12.7974 146.041 14.1145V24.6162H142.154V14.7158C142.154 13.6135 141.867 12.7507 141.295 12.1279C140.729 11.5052 139.945 11.1941 138.943 11.194C138.263 11.194 137.658 11.3442 137.128 11.6448C136.606 11.9383 136.194 12.3642 135.893 12.9226C135.6 13.4809 135.453 14.1576 135.453 14.9523V24.6162H131.566V8.12297H135.282V10.9257H135.475C135.854 10.0023 136.459 9.26837 137.289 8.72432C138.127 8.18027 139.161 7.90813 140.393 7.90813ZM128.476 24.6157H124.589V8.1225H128.476V24.6157ZM103.999 7.88562C104.214 7.88562 104.454 7.89651 104.719 7.91798C104.991 7.9323 105.216 7.95725 105.395 7.99303V11.5688C105.23 11.5115 104.969 11.4612 104.611 11.4182C104.26 11.3681 103.92 11.3432 103.591 11.3432C102.882 11.3432 102.245 11.497 101.68 11.8048C101.121 12.1054 100.681 12.5245 100.359 13.0614C100.037 13.5983 99.8758 14.2174 99.8758 14.919V24.6152H95.9885V8.12203H99.7576V10.8708H99.9292C100.23 9.91872 100.746 9.18486 101.476 8.66944C102.213 8.14694 103.054 7.88563 103.999 7.88562ZM68.6921 11.0964C67.8618 11.0965 67.1568 11.3147 66.577 11.7513C65.9972 12.1879 65.5567 12.7999 65.2561 13.5872C64.9626 14.3747 64.8161 15.3018 64.8161 16.3684C64.8161 17.435 64.9662 18.3694 65.2669 19.1711C65.5747 19.9729 66.0151 20.5993 66.5878 21.0503C67.1676 21.494 67.8689 21.7158 68.6921 21.7159C69.5511 21.7159 70.2709 21.4868 70.8508 21.0287C71.4305 20.5634 71.8669 19.9297 72.1604 19.128C72.461 18.3191 72.6117 17.3992 72.6117 16.3684C72.6116 15.3448 72.4647 14.4358 72.1712 13.6412C71.8777 12.8467 71.4413 12.2238 70.8615 11.7729C70.2817 11.3219 69.5583 11.0964 68.6921 11.0964ZM156.29 11.0974C155.424 11.0974 154.701 11.3228 154.121 11.7738C153.541 12.2247 153.105 12.844 152.811 13.6313C152.518 14.4116 152.371 15.2993 152.371 16.2943C152.371 17.3036 152.518 18.1881 152.811 18.9469C153.112 19.6984 153.552 20.2855 154.132 20.7078C154.719 21.123 155.438 21.3307 156.29 21.3308C157.113 21.3308 157.815 21.1302 158.395 20.7294C158.975 20.3285 159.415 19.752 159.716 19.0004C160.016 18.2487 160.167 17.3466 160.167 16.2943C160.167 15.2564 160.016 14.3473 159.716 13.5671C159.422 12.7868 158.986 12.1817 158.406 11.7522C157.833 11.3156 157.128 11.0974 156.29 11.0974ZM86.1234 10.936C85.3288 10.936 84.6308 11.1297 84.0294 11.5163C83.4282 11.8956 82.9591 12.3965 82.6227 13.0192C82.3289 13.5684 82.1638 14.1664 82.1264 14.8125H89.8816C89.8745 14.068 89.7134 13.4057 89.3985 12.8259C89.0835 12.239 88.6431 11.7772 88.0776 11.4407C87.5193 11.1043 86.8678 10.936 86.1234 10.936ZM126.543 1.56152C127.166 1.56152 127.695 1.76926 128.132 2.18446C128.576 2.5925 128.798 3.09006 128.798 3.67706C128.798 4.25684 128.576 4.7545 128.132 5.16966C127.695 5.57761 127.165 5.78134 126.543 5.78134C125.927 5.78131 125.397 5.57766 124.954 5.16966C124.51 4.7545 124.288 4.25684 124.288 3.67706C124.288 3.09011 124.51 2.59248 124.954 2.18446C125.397 1.76928 125.927 1.56155 126.543 1.56152Z" fill="#2C1B3C"/>
<path d="M23.9557 0C37.186 0 47.9114 10.7253 47.9114 23.9557C47.9114 37.1861 37.186 47.9114 23.9557 47.9114C10.7253 47.9114 0 37.1861 0 23.9557C1.46498e-07 16.7795 3.15613 10.341 8.15523 5.95056V23.616C8.15523 28.9361 10.0719 33.1795 13.2117 36.0594C16.2983 38.8905 20.3331 40.1911 24.2561 40.1385C28.1772 40.0858 32.1729 38.6806 35.2214 35.8573C38.3227 32.985 40.2661 28.8055 40.2661 23.616V23.5454L40.2629 23.4747C40.1563 20.9178 39.2919 17.1684 36.9474 13.964C34.4887 10.6036 30.4833 7.98539 24.6351 7.98539C21.9809 7.98542 19.6862 8.52363 17.7272 9.41806V0.817395C19.7133 0.284107 21.8013 4.39863e-08 23.9557 0ZM24.1952 17.5405C27.7674 17.5405 30.6633 20.4364 30.6633 24.0086C30.6633 27.5808 27.7674 30.4766 24.1952 30.4766C20.623 30.4766 17.7272 27.5808 17.7272 24.0086C17.7272 20.4364 20.623 17.5405 24.1952 17.5405Z" fill="url(#paint0_linear_515_7301)"/>
<defs>
<linearGradient id="paint0_linear_515_7301" x1="7.92797" y1="6.52675" x2="40.8534" y2="39.8168" gradientUnits="userSpaceOnUse">
<stop stop-color="#FA6523"/>
<stop offset="1" stop-color="#B25BFF"/>
</linearGradient>
</defs>
</svg>
